Coordinates
version=1
nRows=14
nColumns=24
inDegrees=yes

Units are S.I. units (second, meters, Newtons, ...)
Angles are in degrees.

endheader
time	pelvis_tilt	pelvis_list	pelvis_rotation	pelvis_tx	pelvis_ty	pelvis_tz	hip_flexion_r	hip_adduction_r	hip_rotation_r	knee_angle_r	ankle_angle_r	subtalar_angle_r	mtp_angle_r	hip_flexion_l	hip_adduction_l	hip_rotation_l	knee_angle_l	ankle_angle_l	subtalar_angle_l	mtp_angle_l	lumbar_extension	lumbar_bending	lumbar_rotation
      0.61200000	     -5.87155934	      2.38666358	     12.82022237	     -0.73802046	      0.88098324	      0.26191078	     33.79417174	     -5.84114829	    -10.15384439	     -4.77337268	      0.63859708	     -0.53420448	      3.58554965	    -17.92292564	      1.54328961	     12.54383097	     -5.46828034	      7.26541255	     -4.41676342	     15.31922545	     -4.69598777	     -3.68689875	    -15.92753598
      0.61616667	     -5.94710201	      2.30835278	     12.82601808	     -0.73208861	      0.87997184	      0.26227524	     33.97142914	     -5.70802991	    -10.04169974	     -5.47382195	      0.52205564	     -0.65560118	      3.56865934	    -17.95584072	      1.40761191	     12.44888185	     -5.97511429	      7.13127413	     -4.32580518	     15.36304401	     -4.56266574	     -3.54970824	    -15.75037308
      0.62033333	     -5.96150103	      2.20307611	     12.83434722	     -0.72608117	      0.87909918	      0.26264215	     34.05788119	     -5.53405538	     -9.99109619	     -6.14411492	      0.30841816	     -0.82835780	      3.56555765	    -18.05784635	      1.22719001	     12.37137319	     -6.46207666	      6.95183965	     -4.32113104	     15.39026296	     -4.51323734	     -3.38679726	    -15.69784073
      0.62450000	     -6.06230969	      2.10982454	     12.81229588	     -0.72004408	      0.87812443	      0.26311331	     34.21598747	     -5.35048901	     -9.75718656	     -6.77101134	     -0.05459418	     -1.25040638	      3.58205361	    -18.02003672	      1.08801523	     12.18975147	     -7.05190462	      6.78169826	     -4.11644824	     15.50882977	     -4.31972184	     -3.21962403	    -15.51212951
      0.62866667	     -6.10370343	      1.98947783	     12.78547523	     -0.71393265	      0.87727563	      0.26358974	     34.30210927	     -5.12818066	     -9.60878484	     -7.39381746	     -0.46039143	     -1.64143746	      3.62173229	    -18.04388458	      0.90510933	     11.98961895	     -7.63711914	      6.58248924	     -3.93809768	     15.68480425	     -4.20888723	     -3.02587667	    -15.35528203
      0.63283333	     -6.15223645	      1.86941025	     12.75188711	     -0.70777715	      0.87645884	      0.26409335	     34.39339496	     -4.89995554	     -9.46333441	     -8.02347009	     -0.91913571	     -2.06157490	      3.68859899	    -18.04796610	      0.72843400	     11.80749374	     -8.24542250	      6.36088407	     -3.79768075	     15.91964034	     -4.08707427	     -2.83751560	    -15.20048985
      0.63700000	     -6.19323334	      1.73473246	     12.71580020	     -0.70157475	      0.87568798	      0.26461981	     34.47842811	     -4.65803202	     -9.38073841	     -8.66229180	     -1.41743659	     -2.43350762	      4.91004907	    -18.00627904	      0.53095387	     11.49709922	     -8.94794654	      6.14578222	     -3.52083366	     19.49146174	     -3.96656705	     -2.63884696	    -15.09300244
      0.64116667	     -6.23448057	      1.60328277	     12.65022328	     -0.69530688	      0.87497680	      0.26517715	     34.54992576	     -4.39415432	     -9.21390706	     -9.27626247	     -1.98305523	     -2.95824125	      4.91895849	    -18.02202719	      0.35518682	     11.38225465	     -9.54097500	      5.75353516	     -3.58278614	     19.56316765	     -3.84369287	     -2.43158941	    -14.88732856
      0.64533333	     -6.30530096	      1.45445384	     12.58227355	     -0.68899951	      0.87426627	      0.26575529	     34.65397560	     -4.12000712	     -9.07958686	     -9.89382101	     -2.56865299	     -3.37275551	      4.94155028	    -17.96310518	      0.16809846	     11.19936630	    -10.21299011	      5.35011524	     -3.53657526	     19.65229063	     -3.68039968	     -2.19840738	    -14.72621110
      0.64950000	     -6.37352594	      1.30532452	     12.50316042	     -0.68266364	      0.87359622	      0.26636804	     34.76037509	     -3.83650837	     -8.92602355	    -10.52626450	     -3.18942735	     -3.88984779	      4.98233701	    -17.88168251	     -0.01663783	     10.98434601	    -10.93353939	      4.94755117	     -3.45197659	     19.78583439	     -3.51618370	     -1.97374213	    -14.53201437
      0.65366667	     -6.42212754	      1.14354619	     12.41950289	     -0.67630204	      0.87298702	      0.26700960	     34.85445744	     -3.53397455	     -8.78267459	    -11.17878557	     -3.83322757	     -4.51505859	      5.07096510	    -17.78549444	     -0.21823709	     10.73801600	    -11.72822145	      4.60444108	     -3.31168363	     20.04540726	     -3.37313422	     -1.74782314	    -14.30198643
      0.65783333	     -6.50015758	      0.98051471	     12.32766234	     -0.66990069	      0.87239983	      0.26765287	     34.98359634	     -3.23637581	     -8.64287887	    -11.84918951	     -4.45248739	     -5.03437965	      5.17851848	    -17.64258120	     -0.40743902	     10.51236582	    -12.53708971	      4.15364341	     -3.22661624	     20.35495393	     -3.19194865	     -1.50380201	    -14.09200929
      0.66200000	     -6.57999099	      0.81182947	     12.22384000	     -0.66346582	      0.87185039	      0.26831217	     35.12933722	     -2.93248359	     -8.51083535	    -12.55769846	     -5.03980240	     -5.52565255	      5.28990093	    -17.48464544	     -0.59743808	     10.28802761	    -13.36511740	      3.66573444	     -3.15725013	     20.68673318	     -3.00455803	     -1.25287195	    -13.88675739
      0.66616667	     -6.56141820	      0.56760230	     12.09761318	     -0.65692981	      0.87148285	      0.26903701	     35.14010049	     -2.51680450	     -8.37985962	    -13.19048942	     -5.64542224	     -6.06802716	      5.85399115	    -17.37937706	     -0.90122189	      9.86612728	    -14.26604654	      3.16546165	     -2.84558168	     22.34609511	     -2.92918547	     -0.87670309	    -13.58766294
